<svg xmlns="http://www.w3.org/2000/svg" viewBox="0 0 324.53 108.41"><defs><style>.a{font-size:70px;font-family:PinyonScript, Pinyon Script;}.a,.b,.g{fill:#0367a6;}.b{font-size:17px;font-family:Raleway-SemiBold, Raleway;font-weight:600;letter-spacing:0.05em;}.c{letter-spacing:0.04em;}.d{letter-spacing:0.05em;}.e{letter-spacing:0.04em;}.f{fill:#04c4d9;}.f,.g{stroke:#0367a6;stroke-miterlimit:10;}</style></defs><title>ob-logo</title><text class="a" transform="translate(52.57 75.38)">Outbound</text><text class="b" transform="translate(108.04 97.46) scale(1.82 1)">PROPE<tspan class="c" x="59.7" y="0">R</tspan><tspan class="d" x="71.6" y="0">TI</tspan><tspan class="e" x="88.4" y="0">E</tspan><tspan x="99.25" y="0">S</tspan></text><path class="f" d="M92.76,97.42C57,93.33,31.67,72.33,36.09,50.52s37-36.17,72.66-32.07c1.29.14,2.57.32,3.83.51A105.53,105.53,0,0,0,85,12.08C46,7.61,10.56,23.27,5.74,47S28.58,93.71,67.51,98.17a112.87,112.87,0,0,0,29.11-.38C95.33,97.69,94.05,97.57,92.76,97.42Z"/><path class="g" d="M87.25,98.1C51.58,94.16,26.61,70.77,31.47,45.86S69.18,4,104.85,7.89c1.29.14,2.56.31,3.82.51A92.65,92.65,0,0,0,81.15,1.12c-38.88-4.3-74.69,14.23-80,41.39S23.08,95.17,62,99.46a99.89,99.89,0,0,0,29.13-1C89.82,98.36,88.54,98.25,87.25,98.1Z"/></svg>